<svg width="79" height="79" viewBox="0 0 79 79" fill="none" xmlns="http://www.w3.org/2000/svg">
<g clip-path="url(#clip0_1_4864)">
<path d="M3.32274 34.2333H21.7557C22.4832 34.2333 23.0727 33.6439 23.0727 32.9164V31.6H25.706V32.9164C25.706 33.6439 26.2954 34.2333 27.0223 34.2333H28.6274L29.6954 38.503C29.8425 39.0888 30.3686 39.4999 30.9726 39.4999H36.2391C36.8431 39.4999 37.3698 39.0888 37.5163 38.503L38.5843 34.2333H40.1894C40.9162 34.2333 41.5057 33.6439 41.5057 32.9164V26.3335C42.0072 26.3359 42.467 26.0538 42.6912 25.6054L44.9533 21.0663H50.7225V65.8334H41.9415C44.1354 64.3784 45.4547 61.9217 45.4559 59.2896V50.033C45.4559 49.3062 44.8665 48.7167 44.139 48.7167H23.0727C22.3452 48.7167 21.7557 49.3062 21.7557 50.033H15.1722C14.4453 50.033 13.8559 50.6225 13.8559 51.35V59.2499C13.8559 59.9773 14.4453 60.5668 15.1722 60.5668H21.8691C22.2247 62.7173 23.456 64.6243 25.2702 65.8334H15.1728C14.4453 65.8334 13.8559 66.4228 13.8559 67.1497V77.6835C13.8559 78.4103 14.4453 78.9998 15.1728 78.9998H75.739C76.4665 78.9998 77.056 78.4103 77.056 77.6835V1.31694C77.056 0.589461 76.4665 0 75.739 0H15.1728C14.4453 0 13.8559 0.589461 13.8559 1.31694V19.75C13.8559 20.4774 14.4453 21.0669 15.1728 21.0669H22.259L24.5277 25.6054C24.7507 26.0514 25.2069 26.3335 25.706 26.3335V28.9668H23.0727V27.6498C23.0727 26.9229 22.4832 26.3335 21.7557 26.3335H3.32274C2.59526 26.3335 2.0058 26.9229 2.0058 27.6498V32.9164C2.0058 33.6439 2.59526 34.2333 3.32274 34.2333ZM16.4892 52.6663H21.7557V57.9335H16.4892V52.6663ZM24.389 59.2499V51.35H42.8226V59.2896C42.819 62.1749 40.4811 64.5128 37.5952 64.5164H29.6164C26.7312 64.5128 24.3927 62.1749 24.3896 59.2896V59.2499H24.389ZM35.2109 36.8666H32.0008L31.3426 34.2333H35.8691L35.2109 36.8666ZM53.3558 21.0663H74.4227V65.8334H53.3558V21.0663ZM74.4227 76.3665H16.4892V68.4667H74.4227V76.3665ZM16.4892 2.63329H74.4227V18.433H16.4892V2.63329ZM25.2027 21.0663H42.009L40.692 23.7002H26.5197L25.2027 21.0663ZM38.8724 26.3335V31.6H28.3393V26.3335H38.8724ZM4.63908 28.9668H20.4394V31.6H4.63908V28.9668Z" fill="black"/>
<path d="M33.6061 15.7998C36.5148 15.7998 38.8727 13.4419 38.8727 10.5332C38.8727 7.62445 36.5148 5.2666 33.6061 5.2666C30.6973 5.2666 28.3395 7.62445 28.3395 10.5332C28.3395 13.4419 30.6973 15.7998 33.6061 15.7998ZM33.6061 7.8999C35.0604 7.8999 36.2394 9.07882 36.2394 10.5332C36.2394 11.9876 35.0604 13.1665 33.6061 13.1665C32.1517 13.1665 30.9728 11.9876 30.9728 10.5332C30.9728 9.07882 32.1517 7.8999 33.6061 7.8999Z" fill="black"/>
<path d="M41.5059 9.2168H44.1392V11.8501H41.5059V9.2168Z" fill="black"/>
<path d="M46.7729 9.2168H49.4062V11.8501H46.7729V9.2168Z" fill="black"/>
<path d="M62.5726 51.3501H65.2059V61.8833H62.5726V51.3501Z" fill="black"/>
<path d="M57.306 51.3501H59.9393V61.8833H57.306V51.3501Z" fill="black"/>
<path d="M67.8392 51.3501H70.4725V61.8833H67.8392V51.3501Z" fill="black"/>
</g>
<defs>
<clipPath id="clip0_1_4864">
<rect width="79" height="79" fill="white"/>
</clipPath>
</defs>
</svg>
