<svg width="90" height="85" viewBox="0 0 90 85" fill="none" xmlns="http://www.w3.org/2000/svg">
<g filter="url(#filter0_d_1_4799)">
<path d="M84.5575 1.45711C82.6346 -0.485704 79.5063 -0.485704 77.5835 1.45711L67.6076 11.5379C67.1381 12.0124 67.1374 12.782 67.6062 13.2571C68.075 13.7323 68.8356 13.7329 69.3048 13.2586L79.2808 3.17785C80.2677 2.18058 81.8734 2.18091 82.8601 3.17785C83.3356 3.65848 83.5975 4.30123 83.5975 4.98774C83.5975 5.67425 83.3355 6.31699 82.8601 6.79747L49.2247 40.7868C48.2378 41.7839 46.6323 41.7839 45.6454 40.7868C45.1699 40.3063 44.9079 39.6636 44.9079 38.9771C44.9079 38.5467 45.011 38.1336 45.205 37.7668C45.208 37.7614 45.2115 37.7564 45.2144 37.7509C45.3286 37.5389 45.4724 37.3421 45.6454 37.1672L64.2757 18.3409C64.7453 17.8664 64.746 17.0967 64.2772 16.6216C63.8086 16.1465 63.048 16.1457 62.5786 16.6202L44.3119 35.0786C44.7314 31.5618 46.0786 28.411 46.9378 26.6901C47.2575 26.0522 47.2244 25.2738 46.8512 24.6587C46.5202 24.1131 45.9743 23.7873 45.3914 23.7873H42.5705C41.907 23.7873 41.3694 24.3316 41.3694 25.003C41.3694 25.6745 41.907 26.2188 42.5705 26.2188H44.4905C43.4652 28.3952 42.0709 32.0061 41.8196 35.9567H10.2838C10.0319 32.0001 8.63787 28.3913 7.61335 26.2188H19.5532C19.7489 27.1318 20.0921 28.563 20.5985 30.0931C21.5527 32.9803 25.2863 34.7726 25.7088 34.9674C26.0249 35.1131 26.3887 35.1131 26.7048 34.9674C27.1271 34.7726 30.8585 32.9807 31.8168 30.0929C32.3221 28.563 32.6642 27.1318 32.8595 26.2188H34.7363C35.3999 26.2188 35.9375 25.6745 35.9375 25.003C35.9375 24.3316 35.3999 23.7873 34.7363 23.7873H31.8742C31.2899 23.7873 30.7901 24.2133 30.6905 24.7962C30.6869 24.8178 30.3134 26.9755 29.5391 29.3204C29.0878 30.6802 27.2846 31.9072 26.2072 32.4997C25.1503 31.9155 23.3239 30.6752 22.8764 29.3213C22.0997 26.9747 21.7249 24.8168 21.7211 24.7957C21.6214 24.2129 21.1219 23.7874 20.5375 23.7874H6.85197C6.19677 23.7874 5.5965 24.1309 5.24656 24.7061C4.88396 25.3016 4.85241 26.0606 5.16504 26.6892C5.91729 28.1937 7.57603 31.9137 7.87457 35.9569H6.52685C5.38045 35.9569 4.4477 36.9007 4.4477 38.0607V40.618C4.4477 41.778 5.38045 42.7218 6.52685 42.7218H7.36655C7.16043 44.2402 6.89072 46.1129 6.5954 48.0724C6.4953 48.7362 6.94582 49.3562 7.60166 49.4576C7.663 49.4671 7.72402 49.4717 7.7844 49.4717C8.36769 49.4717 8.87955 49.0406 8.9702 48.4391C9.28891 46.3246 9.57831 44.3082 9.79116 42.7218H42.3112C42.9049 47.1404 43.9953 54.1354 45.5587 63.5506C46.0442 66.4686 45.2772 69.3934 43.4543 71.5752C41.8417 73.5054 39.6448 74.5683 37.2684 74.5683H14.8351C12.4587 74.5683 10.2619 73.5054 8.64908 71.5752C6.82618 69.3934 6.05919 66.4686 6.54511 63.5502C6.99595 60.8345 7.41396 58.2804 7.78728 55.9589C7.89394 55.2962 7.44951 54.6715 6.79479 54.5637C6.13927 54.4547 5.52283 54.9055 5.41632 55.5682C5.04364 57.8857 4.62627 60.4356 4.17623 63.1469C3.57292 66.7719 4.53466 70.4161 6.81497 73.1453C8.86177 75.595 11.7851 77 14.8354 77H37.2687C40.3191 77 43.2422 75.595 45.2889 73.1455C47.5692 70.4163 48.5311 66.7719 47.9281 63.1472C46.4604 54.3074 45.4114 47.6135 44.8012 43.196C45.6026 43.7079 46.5186 43.9651 47.4353 43.9651C48.6981 43.9651 49.9608 43.4793 50.9222 42.508L84.5575 8.5182C85.4877 7.57816 86 6.32445 86 4.98774C86 3.65103 85.4878 2.39715 84.5575 1.45711ZM6.85004 40.2898V38.388H42.5404C42.5182 38.582 42.5055 38.7785 42.5055 38.9769C42.5055 39.427 42.5649 39.8673 42.6775 40.2898H6.85004Z" fill="black"/>
<path d="M14.8353 67.7897C14.4552 67.7897 14.097 67.5916 13.7702 67.201C13.2217 66.5449 12.9975 65.6247 13.1554 64.6759C14.3928 57.2236 15.3446 51.2153 15.9846 46.8177C16.0813 46.1534 15.6276 45.5356 14.9713 45.4377C14.3165 45.3398 13.7046 45.7989 13.608 46.4633C12.9704 50.8447 12.021 56.8367 10.7864 64.2724C10.5107 65.9283 10.93 67.5683 11.9366 68.7719C12.7183 69.7066 13.7478 70.2213 14.8353 70.2213C15.4988 70.2213 16.0365 69.677 16.0365 69.0055C16.0365 68.3341 15.4988 67.7897 14.8353 67.7897Z" fill="black"/>
<path d="M47.5224 40.1564C48.1858 40.1564 48.7236 39.612 48.7236 38.9406C48.7236 38.2691 48.1858 37.7248 47.5224 37.7248C46.859 37.7248 46.3212 38.2691 46.3212 38.9406C46.3212 39.612 46.859 40.1564 47.5224 40.1564Z" fill="black"/>
</g>
<defs>
<filter id="filter0_d_1_4799" x="0" y="0" width="90" height="85" filterUnits="userSpaceOnUse" color-interpolation-filters="sRGB">
<feFlood flood-opacity="0" result="BackgroundImageFix"/>
<feColorMatrix in="SourceAlpha" type="matrix" values="0 0 0 0 0 0 0 0 0 0 0 0 0 0 0 0 0 0 127 0" result="hardAlpha"/>
<feOffset dy="4"/>
<feGaussianBlur stdDeviation="2"/>
<feComposite in2="hardAlpha" operator="out"/>
<feColorMatrix type="matrix" values="0 0 0 0 0 0 0 0 0 0 0 0 0 0 0 0 0 0 0.25 0"/>
<feBlend mode="normal" in2="BackgroundImageFix" result="effect1_dropShadow_1_4799"/>
<feBlend mode="normal" in="SourceGraphic" in2="effect1_dropShadow_1_4799" result="shape"/>
</filter>
</defs>
</svg>
